<mxfile host="app.diagrams.net" agent="Mozilla/5.0 (X11; Linux x86_64) AppleWebKit/537.36 (KHTML, like Gecko) Chrome/114.0.0.0 Safari/537.36" version="24.7.15">
  <diagram id="C5RBs43oDa-KdzZeNtuy" name="Page-1">
    <mxGraphModel dx="693" dy="545" grid="1" gridSize="10" guides="1" tooltips="1" connect="1" arrows="1" fold="1" page="1" pageScale="1" pageWidth="827" pageHeight="1169" math="0" shadow="0">
      <root>
        <mxCell id="WIyWlLk6GJQsqaUBKTNV-0" />
        <mxCell id="WIyWlLk6GJQsqaUBKTNV-1" parent="WIyWlLk6GJQsqaUBKTNV-0" />
        <mxCell id="3RqU_Vx3YiBuMNx3rxcH-0" value="Bắt đầu" style="ellipse;whiteSpace=wrap;html=1;" vertex="1" parent="WIyWlLk6GJQsqaUBKTNV-1">
          <mxGeometry x="240" y="30" width="120" height="80" as="geometry" />
        </mxCell>
        <mxCell id="3RqU_Vx3YiBuMNx3rxcH-1" value="" style="endArrow=classic;html=1;rounded=0;fontSize=12;startSize=8;endSize=8;curved=1;" edge="1" parent="WIyWlLk6GJQsqaUBKTNV-1">
          <mxGeometry width="50" height="50" relative="1" as="geometry">
            <mxPoint x="299.5" y="110" as="sourcePoint" />
            <mxPoint x="299.5" y="150" as="targetPoint" />
          </mxGeometry>
        </mxCell>
        <mxCell id="3RqU_Vx3YiBuMNx3rxcH-2" value="Nhập n" style="shape=parallelogram;perimeter=parallelogramPerimeter;whiteSpace=wrap;html=1;fixedSize=1;" vertex="1" parent="WIyWlLk6GJQsqaUBKTNV-1">
          <mxGeometry x="240" y="150" width="120" height="60" as="geometry" />
        </mxCell>
        <mxCell id="3RqU_Vx3YiBuMNx3rxcH-3" value="" style="endArrow=classic;html=1;rounded=0;fontSize=12;startSize=8;endSize=8;curved=1;" edge="1" parent="WIyWlLk6GJQsqaUBKTNV-1">
          <mxGeometry width="50" height="50" relative="1" as="geometry">
            <mxPoint x="299.5" y="210" as="sourcePoint" />
            <mxPoint x="299.5" y="250" as="targetPoint" />
          </mxGeometry>
        </mxCell>
        <mxCell id="3RqU_Vx3YiBuMNx3rxcH-6" value="" style="edgeStyle=none;curved=1;rounded=0;orthogonalLoop=1;jettySize=auto;html=1;fontSize=12;startSize=8;endSize=8;" edge="1" parent="WIyWlLk6GJQsqaUBKTNV-1" source="3RqU_Vx3YiBuMNx3rxcH-4" target="3RqU_Vx3YiBuMNx3rxcH-5">
          <mxGeometry relative="1" as="geometry" />
        </mxCell>
        <mxCell id="3RqU_Vx3YiBuMNx3rxcH-4" value="sum = 0, i = 1" style="rounded=0;whiteSpace=wrap;html=1;" vertex="1" parent="WIyWlLk6GJQsqaUBKTNV-1">
          <mxGeometry x="240" y="250" width="120" height="60" as="geometry" />
        </mxCell>
        <mxCell id="3RqU_Vx3YiBuMNx3rxcH-8" value="" style="edgeStyle=none;curved=1;rounded=0;orthogonalLoop=1;jettySize=auto;html=1;fontSize=12;startSize=8;endSize=8;" edge="1" parent="WIyWlLk6GJQsqaUBKTNV-1" source="3RqU_Vx3YiBuMNx3rxcH-5" target="3RqU_Vx3YiBuMNx3rxcH-7">
          <mxGeometry relative="1" as="geometry" />
        </mxCell>
        <mxCell id="3RqU_Vx3YiBuMNx3rxcH-5" value="i&amp;lt;=n" style="rhombus;whiteSpace=wrap;html=1;rounded=0;" vertex="1" parent="WIyWlLk6GJQsqaUBKTNV-1">
          <mxGeometry x="260" y="360" width="80" height="80" as="geometry" />
        </mxCell>
        <mxCell id="3RqU_Vx3YiBuMNx3rxcH-10" value="" style="edgeStyle=none;curved=1;rounded=0;orthogonalLoop=1;jettySize=auto;html=1;fontSize=12;startSize=8;endSize=8;" edge="1" parent="WIyWlLk6GJQsqaUBKTNV-1" source="3RqU_Vx3YiBuMNx3rxcH-7" target="3RqU_Vx3YiBuMNx3rxcH-9">
          <mxGeometry relative="1" as="geometry" />
        </mxCell>
        <mxCell id="3RqU_Vx3YiBuMNx3rxcH-7" value="tbc = sum/n" style="whiteSpace=wrap;html=1;rounded=0;" vertex="1" parent="WIyWlLk6GJQsqaUBKTNV-1">
          <mxGeometry x="440" y="370" width="120" height="60" as="geometry" />
        </mxCell>
        <mxCell id="3RqU_Vx3YiBuMNx3rxcH-12" value="" style="edgeStyle=none;curved=1;rounded=0;orthogonalLoop=1;jettySize=auto;html=1;fontSize=12;startSize=8;endSize=8;" edge="1" parent="WIyWlLk6GJQsqaUBKTNV-1" source="3RqU_Vx3YiBuMNx3rxcH-9" target="3RqU_Vx3YiBuMNx3rxcH-11">
          <mxGeometry relative="1" as="geometry" />
        </mxCell>
        <mxCell id="3RqU_Vx3YiBuMNx3rxcH-9" value="in sum, tbc&amp;nbsp;" style="whiteSpace=wrap;html=1;rounded=0;" vertex="1" parent="WIyWlLk6GJQsqaUBKTNV-1">
          <mxGeometry x="440" y="490" width="120" height="60" as="geometry" />
        </mxCell>
        <mxCell id="3RqU_Vx3YiBuMNx3rxcH-11" value="kết thúc" style="ellipse;whiteSpace=wrap;html=1;rounded=0;" vertex="1" parent="WIyWlLk6GJQsqaUBKTNV-1">
          <mxGeometry x="455" y="620" width="90" height="60" as="geometry" />
        </mxCell>
      </root>
    </mxGraphModel>
  </diagram>
</mxfile>
